<svg width="1600" height="900" viewBox="0 0 1600 900" fill="none" xmlns="http://www.w3.org/2000/svg">
  <rect width="1600" height="900" fill="#07111E"/>
  <circle cx="1330" cy="162" r="290" fill="#42C1D7" fill-opacity="0.16"/>
  <circle cx="240" cy="780" r="300" fill="#F3B956" fill-opacity="0.12"/>
  <path d="M0 688C140 616 286 582 438 586C620 590 712 684 880 690C1054 696 1196 588 1600 522V900H0V688Z" fill="url(#floor)"/>
  <path d="M140 224L486 124L802 230L1120 134L1488 222" stroke="#163456" stroke-width="10" stroke-linecap="round" opacity="0.5"/>
  <path d="M148 276L494 176L810 282L1128 186L1496 274" stroke="#1D436C" stroke-width="6" stroke-linecap="round" opacity="0.5"/>
  <g opacity="0.92">
    <rect x="170" y="204" width="96" height="292" rx="48" fill="#0B1E35"/>
    <rect x="208" y="158" width="20" height="62" rx="10" fill="#4FD2E0"/>
    <circle cx="218" cy="146" r="24" fill="#4FD2E0"/>
    <rect x="1364" y="218" width="76" height="244" rx="38" fill="#0B1E35"/>
    <rect x="1390" y="180" width="18" height="50" rx="9" fill="#F35A50"/>
    <circle cx="1399" cy="168" r="20" fill="#F35A50"/>
  </g>
  <g>
    <rect x="424" y="228" width="752" height="410" rx="42" fill="#081523" stroke="#214868" stroke-width="2"/>
    <rect x="456" y="260" width="688" height="346" rx="28" fill="url(#stage)"/>
    <path d="M604 518H758C843.944 518 894 468.192 894 388C894 309.808 840.64 266 754 266H604V518ZM679 454V332H750C805.232 332 819 351.424 819 389C819 428.264 801.872 454 748 454H679Z" fill="url(#wordmark)"/>
    <path d="M468 610C604 548 740 520 876 528C966 534 1054 556 1144 596" stroke="#F6C453" stroke-width="10" stroke-linecap="round" opacity="0.7"/>
    <path d="M486 286C620 246 752 232 882 240C968 246 1052 264 1126 304" stroke="#4FD2E0" stroke-width="8" stroke-linecap="round" opacity="0.7"/>
  </g>
  <defs>
    <linearGradient id="floor" x1="800" y1="522" x2="800" y2="900" gradientUnits="userSpaceOnUse">
      <stop stop-color="#0D223B"/>
      <stop offset="1" stop-color="#08111F"/>
    </linearGradient>
    <linearGradient id="stage" x1="486" y1="260" x2="1116" y2="606" gradientUnits="userSpaceOnUse">
      <stop stop-color="#113252"/>
      <stop offset="0.45" stop-color="#0A1E34"/>
      <stop offset="1" stop-color="#081523"/>
    </linearGradient>
    <linearGradient id="wordmark" x1="604" y1="266" x2="890" y2="518" gradientUnits="userSpaceOnUse">
      <stop stop-color="#4FD2E0"/>
      <stop offset="1" stop-color="#F6C453"/>
    </linearGradient>
  </defs>
</svg>
